<?xml version="1.0" encoding="UTF-8"?>
<svg width="436px" height="266px" viewBox="0 0 436 266" version="1.1" xmlns="http://www.w3.org/2000/svg" xmlns:xlink="http://www.w3.org/1999/xlink">
    <title>Group 3</title>
    <g id="Welcome" stroke="none" stroke-width="1" fill="none" fill-rule="evenodd">
        <g id="Desktop-HD" transform="translate(-414.000000, -272.000000)">
            <g id="Group-3" transform="translate(414.000000, 272.000000)">
                <g id="Logo">
                    <g id="Group" fill="#DC3545">
                        <rect id="Rectangle" x="0" y="0" width="24" height="216"></rect>
                        <polygon id="Rectangle-Copy-4" transform="translate(227.309954, 204.000000) rotate(-270.000000) translate(-227.309954, -204.000000) " points="215.309954 0.309954481 239.309954 0.309954481 239.309954 407.690046 215.309954 407.690046"></polygon>
                    </g>
                    <g id="SEAN-LOYLESS-DESIGNS" transform="translate(45.000000, 2.000000)" fill-rule="nonzero">
                        <path d="M0,24.7314227 C0,21.3188527 0.654305278,18.1172199 1.96293546,15.1264283 C3.27156565,12.1356366 5.05166089,9.5187332 7.30327459,7.27563946 C9.55488829,5.03254572 12.1817315,3.25918625 15.1838831,1.95550784 C18.1860347,0.651829428 21.3998283,0 24.8253603,0 L62.8139348,0 L62.8139348,16.5067868 L24.8253603,16.5067868 C23.6706866,16.5067868 22.5930073,16.7176728 21.5922901,17.1394511 C20.5915729,17.5612294 19.7159585,18.1459587 18.9654206,18.8936566 C18.2148827,19.6413545 17.6279324,20.5136557 17.204552,21.5105862 C16.7811716,22.5075168 16.5694846,23.5811182 16.5694846,24.7314227 C16.5694846,25.8817272 16.7811716,26.9649143 17.204552,27.9810166 C17.6279324,28.9971189 18.2148827,29.8790057 18.9654206,30.6267037 C19.7159585,31.3744016 20.5915729,31.9591309 21.5922901,32.3809092 C22.5930073,32.8026875 23.6706866,33.0135735 24.8253603,33.0135735 L41.3948449,33.0135735 C44.8203769,33.0135735 48.0437926,33.6558172 51.0651887,34.9403239 C54.0865849,36.2248306 56.7230503,37.9886043 58.974664,40.2316981 C61.2262777,42.4747918 62.9967508,45.101281 64.2861364,48.1112443 C65.575522,51.1212077 66.2202052,54.3324262 66.2202052,57.7449962 C66.2202052,61.1575662 65.575522,64.3591989 64.2861364,67.3499906 C62.9967508,70.3407822 61.2262777,72.9576857 58.974664,75.2007794 C56.7230503,77.4438732 54.0865849,79.2172326 51.0651887,80.520911 C48.0437926,81.8245894 44.8203769,82.4764189 41.3948449,82.4764189 L4.61867168,82.4764189 L4.61867168,65.9696321 L41.3948449,65.9696321 C42.5495186,65.9696321 43.6271979,65.7587461 44.6279151,65.3369678 C45.6286323,64.9151895 46.5042467,64.3304602 47.2547846,63.5827623 C48.0053225,62.8350643 48.5922728,61.9627632 49.0156532,60.9658326 C49.4390335,59.9689021 49.6507205,58.8952949 49.6507205,57.7449962 C49.6507205,56.5946917 49.4390335,55.5210903 49.0156532,54.5241598 C48.5922728,53.5272292 48.0053225,52.6549281 47.2547846,51.9072302 C46.5042467,51.1595322 45.6286323,50.5748029 44.6279151,50.1530246 C43.6271979,49.7312463 42.5495186,49.5203603 41.3948449,49.5203603 L24.8253603,49.5203603 C21.3998283,49.5203603 18.1860347,48.8685309 15.1838831,47.5648524 C12.1817315,46.261174 9.55488829,44.4878146 7.30327459,42.2447208 C5.05166089,40.0016271 3.27156565,37.3751379 1.96293546,34.3651745 C0.654305278,31.3552111 0,28.1439926 0,24.7314227 Z" id="S" fill="#EAC67A"></path>
                        <path d="M116.467504,82.4764189 L76.7411544,82.4764189 L76.7411544,24.7429257 L116.467504,24.7429257 L116.467504,36.2976764 L88.3397936,36.2976764 L88.3397936,47.8524271 L107.374494,47.8524271 L107.374494,59.4071779 L88.3397936,59.4071779 L88.3397936,70.9216681 L116.467504,70.9216681 L116.467504,82.4764189 Z M160.078927,59.4071779 L160.078927,47.8524271 C160.078927,46.2688413 159.775829,44.7725093 159.169626,43.3633863 C158.563422,41.9542634 157.734956,40.7263317 156.684203,39.6795547 C155.63345,38.6327776 154.400854,37.8074465 152.986379,37.2035366 C151.571904,36.5996268 150.069888,36.2976764 148.480287,36.2976764 C146.890687,36.2976764 145.388671,36.5996268 143.974196,37.2035366 C142.55972,37.8074465 141.327125,38.6327776 140.276372,39.6795547 C139.225619,40.7263317 138.397153,41.9542634 137.790949,43.3633863 C137.184745,44.7725093 136.881648,46.2688413 136.881648,47.8524271 L136.881648,59.4071779 L160.078927,59.4071779 Z M171.677566,82.4764189 L160.078927,82.4764189 L160.078927,70.9216681 L136.881648,70.9216681 L136.881648,82.4764189 L125.323422,82.4764189 L125.323422,47.8524271 C125.323422,44.658415 125.929617,41.6590411 127.142024,38.8542153 C128.354432,36.0493896 130.004628,33.6002363 132.092663,31.5066822 C134.180698,29.413128 136.632418,27.7624659 139.447898,26.5546462 C142.263377,25.3468265 145.274143,24.7429257 148.480287,24.7429257 C151.686431,24.7429257 154.697198,25.3468265 157.512677,26.5546462 C160.328156,27.7624659 162.786612,29.413128 164.888118,31.5066822 C166.989625,33.6002363 168.646556,36.0493896 169.858964,38.8542153 C171.071371,41.6590411 171.677566,44.658415 171.677566,47.8524271 L171.677566,82.4764189 Z M229.474084,82.4764189 L217.067177,82.4764189 L194.718579,44.4705489 L194.718579,82.4764189 L183.11994,82.4764189 L183.11994,24.7429257 L195.526847,24.7429257 L217.875444,62.7890561 L217.875444,24.7429257 L229.474084,24.7429257 L229.474084,82.4764189 Z" id="EAN" fill="#FFFFFF"></path>
                        <polygon id="L" fill="#EAC67A" points="62.8139348 163.751926 4.84960526 163.751926 4.84960526 81.275507 21.4190899 81.275507 21.4190899 147.245139 62.8139348 147.245139"></polygon>
                        <path d="M127.864076,135.126742 C127.864076,137.864467 127.507095,140.5015 126.793122,143.037922 C126.079149,145.574343 125.07556,147.949686 123.782325,150.164022 C122.489091,152.378358 120.926456,154.398071 119.094374,156.223221 C117.262291,158.04837 115.241643,159.611803 113.032367,160.913564 C110.823091,162.215325 108.438726,163.221826 105.879199,163.933098 C103.319673,164.64437 100.665887,165 97.917764,165 C95.1696406,165 92.5225909,164.64437 89.9765354,163.933098 C87.4304799,163.221826 85.0461145,162.215325 82.8233676,160.913564 C80.6006208,159.611803 78.5732366,158.04837 76.7411544,156.223221 C74.9090721,154.398071 73.3397017,152.378358 72.0329959,150.164022 C70.7262902,147.949686 69.7159659,145.574343 69.0019926,143.037922 C68.2880194,140.5015 67.9310381,137.864467 67.9310381,135.126742 C67.9310381,132.389017 68.2880194,129.745274 69.0019926,127.195432 C69.7159659,124.645591 70.7262902,122.270248 72.0329959,120.069332 C73.3397017,117.868416 74.9090721,115.855413 76.7411544,114.030263 C78.5732366,112.205114 80.6006208,110.648391 82.8233676,109.36005 C85.0461145,108.071709 87.4304799,107.071918 89.9765354,106.360647 C92.5225909,105.649375 95.1696406,105.293744 97.917764,105.293744 C100.665887,105.293744 103.319673,105.649375 105.879199,106.360647 C108.438726,107.071918 110.823091,108.071709 113.032367,109.36005 C115.241643,110.648391 117.262291,112.205114 119.094374,114.030263 C120.926456,115.855413 122.489091,117.868416 123.782325,120.069332 C125.07556,122.270248 126.079149,124.645591 126.793122,127.195432 C127.507095,129.745274 127.864076,132.389017 127.864076,135.126742 Z M116.346264,135.126742 C116.346264,132.603741 115.861308,130.221688 114.891382,127.980511 C113.921457,125.739335 112.608035,123.793432 110.951078,122.142745 C109.294121,120.492058 107.340828,119.183606 105.091138,118.217351 C102.841449,117.251095 100.450348,116.767974 97.917764,116.767974 C95.3582373,116.767974 92.9604009,117.251095 90.7241829,118.217351 C88.4879648,119.183606 86.5346711,120.492058 84.8642432,122.142745 C83.1938152,123.793432 81.8736581,125.739335 80.9037322,127.980511 C79.9338063,130.221688 79.4488506,132.603741 79.4488506,135.126742 C79.4488506,137.649743 79.9338063,140.018376 80.9037322,142.232712 C81.8736581,144.447049 83.1938152,146.386241 84.8642432,148.050348 C86.5346711,149.714455 88.4879648,151.029617 90.7241829,151.995873 C92.9604009,152.962129 95.3582373,153.445249 97.917764,153.445249 C100.450348,153.445249 102.841449,152.962129 105.091138,151.995873 C107.340828,151.029617 109.294121,149.714455 110.951078,148.050348 C112.608035,146.386241 113.921457,144.447049 114.891382,142.232712 C115.861308,140.018376 116.346264,137.649743 116.346264,135.126742 Z M162.907863,163.751926 L151.349637,163.751926 L151.349637,145.674981 C148.79011,145.030811 146.439422,143.997469 144.297503,142.574926 C142.155583,141.152383 140.316793,139.454751 138.781077,137.481979 C137.245361,135.509206 136.053178,133.321744 135.204493,130.919524 C134.355808,128.517305 133.931472,125.987632 133.931472,123.330429 L133.931472,106.018433 L145.530111,106.018433 L145.530111,123.330429 C145.530111,124.914014 145.833208,126.410346 146.439412,127.819469 C147.045615,129.228592 147.874081,130.456524 148.924834,131.503301 C149.975588,132.550078 151.208183,133.375409 152.622658,133.979319 C154.037134,134.583229 155.539149,134.885179 157.12875,134.885179 C158.718351,134.885179 160.220366,134.583229 161.634842,133.979319 C163.049317,133.375409 164.281913,132.550078 165.332666,131.503301 C166.383419,130.456524 167.211885,129.228592 167.818088,127.819469 C168.424292,126.410346 168.727389,124.914014 168.727389,123.330429 L168.727389,106.018433 L180.285615,106.018433 L180.285615,123.330429 C180.285615,125.987632 179.861279,128.517305 179.012594,130.919524 C178.163909,133.321744 176.971726,135.509206 175.43601,137.481979 C173.900294,139.454751 172.068239,141.152383 169.939791,142.574926 C167.811342,143.997469 165.46739,145.030811 162.907863,145.674981 L162.907863,163.751926 Z M230.120698,163.751926 L189.545667,163.751926 L189.545667,106.018433 L201.144306,106.018433 L201.144306,152.197175 L230.120698,152.197175 L230.120698,163.751926 Z M277.248084,163.751926 L237.521734,163.751926 L237.521734,106.018433 L277.248084,106.018433 L277.248084,117.573183 L249.120373,117.573183 L249.120373,129.127934 L268.155074,129.127934 L268.155074,140.682685 L249.120373,140.682685 L249.120373,152.197175 L277.248084,152.197175 L277.248084,163.751926 Z M282.709278,123.330429 C282.709278,120.94163 283.167292,118.700487 284.083333,116.606932 C284.999374,114.513378 286.245441,112.681546 287.82157,111.11138 C289.3977,109.541215 291.23649,108.299863 293.337996,107.387288 C295.439503,106.474713 297.689158,106.018433 300.08703,106.018433 L326.679033,106.018433 L326.679033,117.573183 L300.08703,117.573183 C299.278759,117.573183 298.524383,117.720804 297.823881,118.016048 C297.123379,118.311293 296.510449,118.720604 295.985073,119.243992 C295.459696,119.767381 295.048831,120.377992 294.752465,121.075843 C294.456098,121.773694 294.307918,122.525215 294.307918,123.330429 C294.307918,124.135642 294.456098,124.893873 294.752465,125.605144 C295.048831,126.316416 295.459696,126.933737 295.985073,127.457125 C296.510449,127.980514 297.123379,128.389824 297.823881,128.685069 C298.524383,128.980314 299.278759,129.127934 300.08703,129.127934 L311.68567,129.127934 C314.083542,129.127934 316.339933,129.577505 318.45491,130.476659 C320.569888,131.375814 322.415413,132.610456 323.991543,134.180621 C325.567673,135.750787 326.807004,137.589329 327.709574,139.696304 C328.612144,141.803278 329.063422,144.051131 329.063422,146.43993 C329.063422,148.828729 328.612144,151.069872 327.709574,153.163426 C326.807004,155.25698 325.567673,157.088813 323.991543,158.658978 C322.415413,160.229144 320.569888,161.470496 318.45491,162.38307 C316.339933,163.295645 314.083542,163.751926 311.68567,163.751926 L285.942348,163.751926 L285.942348,152.197175 L311.68567,152.197175 C312.493941,152.197175 313.248317,152.049555 313.948819,151.75431 C314.649321,151.459065 315.262251,151.049755 315.787627,150.526366 C316.313004,150.002978 316.723869,149.392367 317.020235,148.694516 C317.316602,147.996664 317.464783,147.245139 317.464783,146.43993 C317.464783,145.634717 317.316602,144.883196 317.020235,144.185344 C316.723869,143.487493 316.313004,142.876882 315.787627,142.353494 C315.262251,141.830105 314.649321,141.420795 313.948819,141.12555 C313.248317,140.830305 312.493941,140.682685 311.68567,140.682685 L300.08703,140.682685 C297.689158,140.682685 295.439503,140.226404 293.337996,139.313829 C291.23649,138.401254 289.3977,137.159903 287.82157,135.589737 C286.245441,134.019572 284.999374,132.181029 284.083333,130.074055 C283.167292,127.96708 282.709278,125.719228 282.709278,123.330429 Z M334.645856,123.330429 C334.645856,120.94163 335.10387,118.700487 336.019911,116.606932 C336.935952,114.513378 338.182019,112.681546 339.758149,111.11138 C341.334278,109.541215 343.173068,108.299863 345.274575,107.387288 C347.376081,106.474713 349.625736,106.018433 352.023609,106.018433 L378.615611,106.018433 L378.615611,117.573183 L352.023609,117.573183 C351.215337,117.573183 350.460961,117.720804 349.760459,118.016048 C349.059957,118.311293 348.447027,118.720604 347.921651,119.243992 C347.396274,119.767381 346.985409,120.377992 346.689043,121.075843 C346.392677,121.773694 346.244496,122.525215 346.244496,123.330429 C346.244496,124.135642 346.392677,124.893873 346.689043,125.605144 C346.985409,126.316416 347.396274,126.933737 347.921651,127.457125 C348.447027,127.980514 349.059957,128.389824 349.760459,128.685069 C350.460961,128.980314 351.215337,129.127934 352.023609,129.127934 L363.622248,129.127934 C366.02012,129.127934 368.276511,129.577505 370.391488,130.476659 C372.506466,131.375814 374.351992,132.610456 375.928121,134.180621 C377.504251,135.750787 378.743582,137.589329 379.646152,139.696304 C380.548722,141.803278 381,144.051131 381,146.43993 C381,148.828729 380.548722,151.069872 379.646152,153.163426 C378.743582,155.25698 377.504251,157.088813 375.928121,158.658978 C374.351992,160.229144 372.506466,161.470496 370.391488,162.38307 C368.276511,163.295645 366.02012,163.751926 363.622248,163.751926 L337.878927,163.751926 L337.878927,152.197175 L363.622248,152.197175 C364.430519,152.197175 365.184895,152.049555 365.885397,151.75431 C366.585899,151.459065 367.198829,151.049755 367.724206,150.526366 C368.249582,150.002978 368.660447,149.392367 368.956814,148.694516 C369.25318,147.996664 369.401361,147.245139 369.401361,146.43993 C369.401361,145.634717 369.25318,144.883196 368.956814,144.185344 C368.660447,143.487493 368.249582,142.876882 367.724206,142.353494 C367.198829,141.830105 366.585899,141.420795 365.885397,141.12555 C365.184895,140.830305 364.430519,140.682685 363.622248,140.682685 L352.023609,140.682685 C349.625736,140.682685 347.376081,140.226404 345.274575,139.313829 C343.173068,138.401254 341.334278,137.159903 339.758149,135.589737 C338.182019,134.019572 336.935952,132.181029 336.019911,130.074055 C335.10387,127.96708 334.645856,125.719228 334.645856,123.330429 Z" id="OYLESS" fill="#FFFFFF"></path>
                    </g>
                </g>
                <text id="developerarchitectde" font-family="IBMPlexSans-SemiBold, IBM Plex Sans" font-size="34" font-weight="500">
                    <tspan x="0" y="257" fill="#FFFFFF">developer</tspan>
                    <tspan x="158.032" y="257" fill="#EAC67A">architect</tspan>
                    <tspan x="299.064" y="257" fill="#FFFFFF">designer</tspan>
                </text>
            </g>
        </g>
    </g>
</svg>